<?xml version="1.0" encoding="UTF-8" standalone="no"?>
<svg
   xmlns:dc="http://purl.org/dc/elements/1.1/"
   xmlns:cc="http://creativecommons.org/ns#"
   xmlns:rdf="http://www.w3.org/1999/02/22-rdf-syntax-ns#"
   xmlns:svg="http://www.w3.org/2000/svg"
   xmlns="http://www.w3.org/2000/svg"
   xmlns:sodipodi="http://sodipodi.sourceforge.net/DTD/sodipodi-0.dtd"
   xmlns:inkscape="http://www.inkscape.org/namespaces/inkscape"
   width="256"
   height="256"
   viewBox="0 0 67.733332 67.733335"
   version="1.1"
   id="svg8"
   inkscape:version="1.0.1 (3bc2e813f5, 2020-09-07)"
   sodipodi:docname="logo.svg"
   inkscape:export-filename="D:\USR_MSM\word2vec-visualizer\word2vec-visualizer-nuxt\nuxt\static\icon.png"
   inkscape:export-xdpi="96"
   inkscape:export-ydpi="96">
  <defs
     id="defs2" />
  <sodipodi:namedview
     id="base"
     pagecolor="#ffffff"
     bordercolor="#666666"
     borderopacity="1.0"
     inkscape:pageopacity="0.0"
     inkscape:pageshadow="2"
     inkscape:zoom="1.4"
     inkscape:cx="74.354677"
     inkscape:cy="138.33643"
     inkscape:document-units="px"
     inkscape:current-layer="layer1"
     inkscape:document-rotation="0"
     showgrid="false"
     units="px"
     inkscape:window-width="1600"
     inkscape:window-height="837"
     inkscape:window-x="-8"
     inkscape:window-y="-8"
     inkscape:window-maximized="1" />
  <metadata
     id="metadata5">
    <rdf:RDF>
      <cc:Work
         rdf:about="">
        <dc:format>image/svg+xml</dc:format>
        <dc:type
           rdf:resource="http://purl.org/dc/dcmitype/StillImage" />
        <dc:title></dc:title>
      </cc:Work>
    </rdf:RDF>
  </metadata>
  <g
     inkscape:label="レイヤー 1"
     inkscape:groupmode="layer"
     id="layer1">
    <rect
       style="fill:#fbb803;fill-opacity:1;stroke:none;stroke-width:4.65645"
       id="rect847"
       width="67.73333"
       height="67.73333"
       x="3.5527137e-15"
       y="0" />
    <rect
       style="fill:#ffffff;fill-opacity:1;stroke:none;stroke-width:2.28509"
       id="rect849"
       width="45.70174"
       height="45.70174"
       x="11.015797"
       y="11.015797" />
    <g
       aria-label="理"
       id="text863"
       style="font-size:40.9365px;line-height:1.25;font-family:sans-serif;fill:#1c53b0;fill-opacity:1;stroke-width:0.38378">
      <path
         d="M 34.664928,35.033364 V 27.82854 h 2.579 v 7.204824 z m -10.64349,-4.994253 v -9.661015 h 4.953317 V 30.407539 C 27.664787,28.851952 25.822644,27.00981 25.822644,27.00981 Z m 13.22249,-10.561618 v 7.204825 h -2.579 v -7.204825 z m 8.473855,0 v 7.204825 H 43.015974 V 19.477493 Z M 43.015974,35.033364 V 27.82854 h 2.701809 v 7.204824 z m 2.947428,16.169917 h -2.947428 v -7.36857 h 8.228237 c 0.614047,0 1.064349,-0.204682 1.146222,-0.654984 -1.719333,-1.760269 -4.789571,-4.380205 -4.789571,-4.380205 l -2.701809,3.888967 h -1.883079 v -6.508903 h 2.701809 v 1.801206 h 0.982476 c 2.046825,0 4.789571,-1.269032 4.830507,-1.678397 V 20.419033 c 0.81873,-0.204683 1.350905,-0.573111 1.596524,-0.900603 l -5.198936,-4.052714 -2.619936,2.865555 H 34.951484 l -5.976729,-2.33338 v 2.33338 c -1.63746,-1.473714 -3.39773,-2.947428 -3.39773,-2.947428 l -2.742746,3.848031 h -8.719474 l 0.327492,1.146222 h 3.848031 v 10.275062 h -4.09365 l 0.327492,1.146222 h 3.766158 v 11.298474 c -1.964952,0.450302 -3.602412,0.81873 -4.584888,1.023413 l 2.578999,6.467967 c 0.491238,-0.163746 0.94154,-0.654984 1.105286,-1.187159 5.812983,-3.766158 9.742887,-6.795459 12.117204,-8.842284 L 29.38412,40.191363 c -1.801206,0.491238 -3.602412,0.982476 -5.362682,1.432777 v -9.82476 h 4.503015 c 0.163746,0 0.327492,0 0.450302,-0.04094 v 7.163887 h 0.859666 c 2.415254,0 4.830507,-1.309968 4.830507,-1.883079 v -0.859666 h 2.579 v 6.508903 h -8.514792 l 0.327492,1.146222 h 8.1873 v 7.36857 H 25.208597 l 0.327492,1.146222 h 27.345582 c 0.573111,0 1.064349,-0.204682 1.146222,-0.654984 -1.842143,-1.883079 -5.157999,-4.748634 -5.157999,-4.748634 z"
         style="font-style:normal;font-variant:normal;font-weight:900;font-stretch:normal;font-size:40.9365px;font-family:'Noto Serif CJK JP';-inkscape-font-specification:'Noto Serif CJK JP Heavy';fill:#1c53b0;fill-opacity:1;stroke-width:0.38378"
         id="path957" />
    </g>
    <g
       aria-label="("
       transform="scale(0.81205269,1.2314472)"
       id="text863-5"
       style="font-style:normal;font-variant:normal;font-weight:bold;font-stretch:normal;font-size:34.7541px;line-height:1.25;font-family:'Noto Serif CJK JP';-inkscape-font-specification:'Noto Serif CJK JP Bold';fill:#1c53b0;fill-opacity:1;stroke-width:0.465476">
      <path
         d="m 10.161201,27.290668 c 0,-6.429508 1.285902,-11.051804 5.908197,-17.099017 L 15.270054,9.4965686 C 9.535627,14.501159 6.5467744,20.061815 6.5467744,27.290668 c 0,7.263607 2.9888526,12.789509 8.7232796,17.828854 L 16.069398,44.42444 C 11.620873,38.481489 10.161201,33.754931 10.161201,27.290668 Z"
         style="font-style:normal;font-variant:normal;font-weight:bold;font-stretch:normal;font-size:34.7541px;font-family:'Noto Serif CJK JP';-inkscape-font-specification:'Noto Serif CJK JP Bold';fill:#1c53b0;fill-opacity:1;stroke-width:0.465476"
         id="path960" />
    </g>
    <g
       aria-label=")"
       transform="scale(0.81205269,1.2314472)"
       id="text863-5-2"
       style="font-style:normal;font-variant:normal;font-weight:bold;font-stretch:normal;font-size:34.7541px;line-height:1.25;font-family:'Noto Serif CJK JP';-inkscape-font-specification:'Noto Serif CJK JP Bold';fill:#1c53b0;fill-opacity:1;stroke-width:0.465476">
      <path
         d="m 73.248825,27.290668 c 0,6.464263 -1.285902,11.086558 -5.908198,17.133772 l 0.764591,0.695082 c 5.76918,-5.004591 8.758033,-10.565247 8.758033,-17.828854 0,-7.228853 -2.988853,-12.754755 -8.758033,-17.7940994 l -0.764591,0.6950824 c 4.413771,5.942951 5.908198,10.669509 5.908198,17.099017 z"
         style="font-style:normal;font-variant:normal;font-weight:bold;font-stretch:normal;font-size:34.7541px;font-family:'Noto Serif CJK JP';-inkscape-font-specification:'Noto Serif CJK JP Bold';fill:#1c53b0;fill-opacity:1;stroke-width:0.465476"
         id="path963" />
    </g>
  </g>
  <g
     inkscape:groupmode="layer"
     id="layer2"
     inkscape:label="レイヤー 2"
     style="display:none">
    <path
       id="path855"
       style="opacity:0.5;fill:#ff0000;fill-opacity:1;stroke:none;stroke-width:2.50196"
       d="M 67.73333,33.866665 C 67.904135,47.335826 59.157512,60.330617 46.614719,65.242422 34.245232,70.450218 18.977027,67.285092 9.6969172,57.589529 0.17625154,48.130104 -2.7035741,32.805529 2.7342533,20.535351 7.861941,8.132432 20.939856,-0.35889836 34.356008,0.00353547 47.826232,0.02736552 60.693285,8.9608391 65.423345,21.573294 c 1.524143,3.907277 2.311853,8.099347 2.309985,12.293371 z" />
  </g>
</svg>
